<svg width="3000" height="3000" viewBox="0 0 3000 3000" fill="none" xmlns="http://www.w3.org/2000/svg">
<g clip-path="url(#clip0_1698_8989)">
<rect width="3000" height="3000" fill="#2E0740"/>
<rect width="3000" height="3000" fill="url(#paint0_radial_1698_8989)"/>
<path d="M139.061 1116V866.146H206.907V1116H139.061ZM516.473 1116H427.947L336.688 939.975H335.149C335.719 945.329 336.232 951.767 336.688 959.286C337.143 966.806 337.542 974.496 337.884 982.357C338.226 990.105 338.396 997.112 338.396 1003.38V1116H278.582V866.146H366.766L457.684 1039.78H458.709C458.367 1034.31 458.025 1027.99 457.684 1020.81C457.342 1013.52 457 1006.17 456.658 998.764C456.43 991.358 456.316 984.807 456.316 979.11V866.146H516.473V1116ZM751.355 1040.12C751.355 1053.68 747.938 1066.55 741.102 1078.74C734.266 1090.82 723.613 1100.62 709.144 1108.14C694.788 1115.66 676.217 1119.42 653.431 1119.42C642.037 1119.42 632.011 1118.91 623.353 1117.88C614.808 1116.85 606.832 1115.2 599.427 1112.92C592.021 1110.53 584.331 1107.46 576.355 1103.7V1043.54C589.913 1050.38 603.585 1055.62 617.371 1059.26C631.157 1062.79 643.632 1064.56 654.798 1064.56C661.52 1064.56 666.989 1063.76 671.204 1062.17C675.534 1060.57 678.724 1058.41 680.774 1055.67C682.825 1052.82 683.851 1049.58 683.851 1045.93C683.851 1041.6 682.312 1037.96 679.236 1034.99C676.274 1031.92 671.489 1028.73 664.881 1025.42C658.273 1022.12 649.557 1018.02 638.733 1013.12C629.505 1008.79 621.131 1004.35 613.611 999.789C606.206 995.232 599.826 990.048 594.471 984.237C589.23 978.313 585.185 971.42 582.337 963.559C579.489 955.697 578.064 946.412 578.064 935.702C578.064 919.638 581.995 906.194 589.856 895.37C597.832 884.433 608.883 876.229 623.011 870.761C637.252 865.292 653.659 862.558 672.229 862.558C688.522 862.558 703.162 864.381 716.15 868.026C729.253 871.672 740.988 875.831 751.355 880.502L730.677 932.626C719.967 927.727 709.428 923.853 699.061 921.005C688.693 918.043 679.065 916.562 670.179 916.562C664.368 916.562 659.583 917.302 655.823 918.783C652.177 920.15 649.443 922.03 647.62 924.423C645.911 926.815 645.057 929.55 645.057 932.626C645.057 936.5 646.538 939.975 649.5 943.051C652.576 946.127 657.646 949.488 664.71 953.134C671.888 956.666 681.629 961.28 693.934 966.977C706.124 972.445 716.492 978.37 725.037 984.75C733.582 991.016 740.076 998.593 744.52 1007.48C749.077 1016.25 751.355 1027.13 751.355 1040.12ZM893.953 866.146C925.626 866.146 949.324 873.039 965.047 886.825C980.883 900.611 988.802 920.207 988.802 945.614C988.802 957.007 987.15 967.945 983.846 978.427C980.656 988.909 975.358 998.251 967.952 1006.45C960.66 1014.66 950.919 1021.15 938.729 1025.94C926.652 1030.72 911.727 1033.11 893.953 1033.11H874.983V1116H807.479V866.146H893.953ZM892.415 920.663H874.983V978.085H888.313C894.124 978.085 899.536 977.117 904.549 975.18C909.562 973.129 913.549 969.882 916.512 965.438C919.588 960.881 921.126 954.843 921.126 947.323C921.126 939.462 918.79 933.082 914.119 928.183C909.448 923.17 902.213 920.663 892.415 920.663ZM1046.12 1116V866.146H1113.97V1116H1046.12ZM1267.5 866.146C1290.18 866.146 1309.03 868.938 1324.07 874.521C1339.11 879.989 1350.39 888.192 1357.91 899.13C1365.54 910.067 1369.36 923.682 1369.36 939.975C1369.36 950.115 1367.65 959.343 1364.23 967.66C1360.81 975.977 1355.91 983.44 1349.53 990.048C1343.27 996.542 1335.75 1002.24 1326.98 1007.14L1399.78 1116H1323.22L1270.24 1025.08H1253.15V1116H1185.64V866.146H1267.5ZM1266.48 917.245H1253.15V974.325H1265.79C1276.16 974.325 1284.65 972.047 1291.26 967.489C1297.87 962.932 1301.17 954.786 1301.17 943.051C1301.17 934.962 1298.44 928.638 1292.97 924.081C1287.5 919.524 1278.67 917.245 1266.48 917.245ZM1593.3 1116L1581 1069.17H1499.82L1487.18 1116H1413.01L1494.52 865.121H1584.59L1667.13 1116H1593.3ZM1566.99 1013.8L1556.22 972.787C1555.08 968.344 1553.43 962.021 1551.26 953.817C1549.1 945.5 1546.93 936.955 1544.77 928.183C1542.72 919.296 1541.12 912.004 1539.98 906.308C1538.96 912.004 1537.48 919.068 1535.54 927.499C1533.72 935.816 1531.78 944.076 1529.73 952.279C1527.79 960.482 1526.08 967.318 1524.6 972.787L1513.84 1013.8H1566.99ZM1822.03 1116H1754.53V921.347H1693.52V866.146H1882.87V921.347H1822.03V1116ZM1936.09 1116V866.146H2003.94V1116H1936.09ZM2309.4 990.731C2309.4 1009.99 2307.07 1027.53 2302.4 1043.37C2297.84 1059.09 2290.66 1072.65 2280.86 1084.04C2271.06 1095.44 2258.47 1104.21 2243.09 1110.36C2227.71 1116.4 2209.31 1119.42 2187.89 1119.42C2166.93 1119.42 2148.76 1116.4 2133.38 1110.36C2118.11 1104.21 2105.52 1095.49 2095.61 1084.21C2085.7 1072.82 2078.35 1059.2 2073.56 1043.37C2068.78 1027.53 2066.38 1009.87 2066.38 990.39C2066.38 964.413 2070.66 941.854 2079.2 922.714C2087.86 903.459 2101.19 888.591 2119.19 878.109C2137.19 867.514 2160.21 862.216 2188.24 862.216C2216.72 862.216 2239.85 867.514 2257.62 878.109C2275.51 888.705 2288.61 903.63 2296.93 922.885C2305.24 942.139 2309.4 964.755 2309.4 990.731ZM2137.48 990.731C2137.48 1005.77 2139.19 1018.7 2142.61 1029.53C2146.02 1040.35 2151.44 1048.67 2158.84 1054.48C2166.25 1060.29 2175.93 1063.19 2187.89 1063.19C2200.31 1063.19 2210.17 1060.29 2217.46 1054.48C2224.86 1048.67 2230.16 1040.35 2233.35 1029.53C2236.66 1018.7 2238.31 1005.77 2238.31 990.731C2238.31 968.173 2234.55 950.342 2227.03 937.24C2219.51 924.138 2206.58 917.587 2188.24 917.587C2176.04 917.587 2166.19 920.549 2158.67 926.474C2151.26 932.398 2145.85 940.829 2142.43 951.767C2139.13 962.704 2137.48 975.692 2137.48 990.731ZM2609.91 1116H2521.38L2430.12 939.975H2428.59C2429.16 945.329 2429.67 951.767 2430.12 959.286C2430.58 966.806 2430.98 974.496 2431.32 982.357C2431.66 990.105 2431.83 997.112 2431.83 1003.38V1116H2372.02V866.146H2460.2L2551.12 1039.78H2552.15C2551.8 1034.31 2551.46 1027.99 2551.12 1020.81C2550.78 1013.52 2550.44 1006.17 2550.1 998.764C2549.87 991.358 2549.75 984.807 2549.75 979.11V866.146H2609.91V1116Z" fill="#F2CE16"/>
<path opacity="0.75" d="M2724.44 708.807C2724.44 720.05 2723.44 730.363 2721.44 739.744C2719.5 749.126 2716.46 757.505 2712.3 764.881C2708.22 772.186 2702.96 778.416 2696.51 783.572C2690.07 788.657 2682.37 792.524 2673.42 795.174C2664.47 797.824 2654.15 799.148 2642.48 799.148C2639.26 799.148 2635.5 799.077 2631.2 798.934C2626.98 798.79 2623.4 798.504 2620.46 798.074V764.451C2623.54 764.952 2626.62 765.382 2629.7 765.74C2632.78 766.027 2636.36 766.17 2640.44 766.17C2652.26 766.17 2661.39 764.487 2667.83 761.121C2674.35 757.755 2678.93 753.1 2681.58 747.156C2684.23 741.141 2685.77 734.23 2686.2 726.424H2684.91C2683.05 729.933 2680.79 733.084 2678.14 735.877C2675.49 738.598 2672.16 740.747 2668.15 742.322C2664.14 743.898 2659.17 744.686 2653.22 744.686C2644.41 744.686 2636.75 742.68 2630.23 738.67C2623.79 734.66 2618.78 728.859 2615.2 721.268C2611.61 713.605 2609.82 704.295 2609.82 693.338C2609.82 681.665 2612.04 671.71 2616.48 663.475C2621 655.167 2627.41 648.794 2635.71 644.354C2644.09 639.913 2654.05 637.693 2665.58 637.693C2673.74 637.693 2681.37 639.09 2688.46 641.883C2695.62 644.676 2701.88 648.973 2707.26 654.773C2712.63 660.503 2716.82 667.843 2719.82 676.795C2722.9 685.747 2724.44 696.417 2724.44 708.807ZM2666.65 671.639C2661.71 671.639 2657.84 673.322 2655.05 676.688C2652.33 680.053 2650.97 685.46 2650.97 692.908C2650.97 698.781 2652.26 703.436 2654.83 706.873C2657.41 710.311 2661.21 712.029 2666.22 712.029C2669.37 712.029 2672.13 711.206 2674.49 709.559C2676.93 707.84 2678.82 705.691 2680.19 703.113C2681.55 700.464 2682.23 697.742 2682.23 694.949C2682.23 692.156 2681.9 689.399 2681.26 686.678C2680.69 683.885 2679.76 681.378 2678.47 679.158C2677.25 676.867 2675.64 675.04 2673.63 673.68C2671.7 672.319 2669.37 671.639 2666.65 671.639ZM2864.35 708.807C2864.35 720.05 2863.35 730.363 2861.34 739.744C2859.41 749.126 2856.36 757.505 2852.21 764.881C2848.13 772.186 2842.87 778.416 2836.42 783.572C2829.97 788.657 2822.28 792.524 2813.32 795.174C2804.37 797.824 2794.06 799.148 2782.39 799.148C2779.16 799.148 2775.4 799.077 2771.11 798.934C2766.88 798.79 2763.3 798.504 2760.37 798.074V764.451C2763.44 764.952 2766.52 765.382 2769.6 765.74C2772.68 766.027 2776.26 766.17 2780.35 766.17C2792.16 766.17 2801.29 764.487 2807.74 761.121C2814.26 757.755 2818.84 753.1 2821.49 747.156C2824.14 741.141 2825.68 734.23 2826.11 726.424H2824.82C2822.96 729.933 2820.7 733.084 2818.05 735.877C2815.4 738.598 2812.07 740.747 2808.06 742.322C2804.05 743.898 2799.07 744.686 2793.13 744.686C2784.32 744.686 2776.66 742.68 2770.14 738.67C2763.7 734.66 2758.68 728.859 2755.1 721.268C2751.52 713.605 2749.73 704.295 2749.73 693.338C2749.73 681.665 2751.95 671.71 2756.39 663.475C2760.9 655.167 2767.31 648.794 2775.62 644.354C2784 639.913 2793.95 637.693 2805.48 637.693C2813.65 637.693 2821.27 639.09 2828.36 641.883C2835.52 644.676 2841.79 648.973 2847.16 654.773C2852.53 660.503 2856.72 667.843 2859.73 676.795C2862.81 685.747 2864.35 696.417 2864.35 708.807ZM2806.56 671.639C2801.62 671.639 2797.75 673.322 2794.96 676.688C2792.23 680.053 2790.87 685.46 2790.87 692.908C2790.87 698.781 2792.16 703.436 2794.74 706.873C2797.32 710.311 2801.11 712.029 2806.13 712.029C2809.28 712.029 2812.04 711.206 2814.4 709.559C2816.83 707.84 2818.73 705.691 2820.09 703.113C2821.45 700.464 2822.13 697.742 2822.13 694.949C2822.13 692.156 2821.81 689.399 2821.17 686.678C2820.59 683.885 2819.66 681.378 2818.37 679.158C2817.16 676.867 2815.54 675.04 2813.54 673.68C2811.61 672.319 2809.28 671.639 2806.56 671.639Z" fill="white"/>
<g filter="url(#filter0_d_1698_8989)">
<path d="M411.033 701H283.763V471.532C283.763 467.3 283.763 459.577 283.763 448.363C283.763 436.938 283.868 424.348 284.08 410.595C284.503 396.841 285.032 384.464 285.667 373.461C280.166 380.02 274.982 385.627 270.115 390.282C265.46 394.937 260.911 399.275 256.468 403.295L203.782 446.776L138.719 366.796L298.045 236.986H411.033V701ZM655.545 230.321C691.938 230.321 721.137 243.017 743.143 268.407C765.359 293.798 776.468 329.451 776.468 375.365C776.468 421.28 766.1 457.144 745.364 482.958C724.629 508.772 694.689 521.679 655.545 521.679C619.998 521.679 591.328 508.772 569.534 482.958C547.952 457.144 537.161 421.28 537.161 375.365C537.161 329.451 547.317 293.798 567.63 268.407C588.154 243.017 617.459 230.321 655.545 230.321ZM656.814 307.763C647.716 307.763 641.368 314.005 637.771 326.488C634.386 338.76 632.693 355.476 632.693 376.635C632.693 397.37 634.386 414.086 637.771 426.781C641.368 439.265 647.716 445.507 656.814 445.507C665.913 445.507 672.155 439.371 675.54 427.099C678.925 414.615 680.618 397.794 680.618 376.635C680.618 355.476 678.925 338.76 675.54 326.488C672.155 314.005 665.913 307.763 656.814 307.763ZM1007.84 236.986L750.442 701H656.18L913.577 236.986H1007.84ZM1008.47 415.038C1044.87 415.038 1074.07 427.733 1096.07 453.124C1118.29 478.515 1129.4 514.167 1129.4 560.082C1129.4 605.785 1119.03 641.544 1098.29 667.357C1077.56 693.171 1047.62 706.078 1008.47 706.078C972.928 706.078 944.257 693.171 922.464 667.357C900.882 641.544 890.091 605.785 890.091 560.082C890.091 514.167 900.247 478.515 920.56 453.124C941.084 427.733 970.389 415.038 1008.47 415.038ZM1009.74 492.479C1000.65 492.479 994.298 498.721 990.701 511.205C987.316 523.477 985.623 540.193 985.623 561.352C985.623 582.087 987.316 598.803 990.701 611.498C994.298 623.982 1000.65 630.224 1009.74 630.224C1018.84 630.224 1025.08 624.088 1028.47 611.815C1032.07 599.332 1033.87 582.51 1033.87 561.352C1033.87 539.346 1032.07 522.419 1028.47 510.57C1025.08 498.51 1018.84 492.479 1009.74 492.479Z" fill="white"/>
</g>
<g clip-path="url(#clip1_1698_8989)">
<path d="M450.756 2453.41C474.225 2414.33 465.979 2355.78 468.873 2325.27C473.879 2272.97 493.554 2223.13 525.631 2181.5C557.709 2139.87 600.884 2108.13 650.184 2089.94C699.483 2071.76 752.902 2067.86 804.285 2078.71C855.668 2089.55 902.926 2114.7 940.615 2151.25C978.305 2187.8 1004.89 2234.26 1017.31 2285.29C1029.73 2336.31 1027.49 2389.83 1010.83 2439.67C994.166 2489.5 963.773 2533.64 923.147 2566.98C882.521 2600.32 833.316 2621.52 781.199 2628.14C750.817 2631.95 692.088 2625.58 653.787 2650.23L450.731 2453.38L450.756 2453.41ZM603.768 2698.87L579.497 2723.91C566.623 2737.19 549.006 2744.82 530.522 2745.12C512.038 2745.42 494.201 2738.36 480.934 2725.5L380.895 2628.52C367.629 2615.66 360.02 2598.05 359.743 2579.57C359.466 2561.08 366.543 2543.24 379.418 2529.95L403.689 2504.92L603.768 2698.87ZM771.331 2375.88L868.537 2275.6L610.243 2316.85L672.768 2377.47L575.683 2477.62L833.855 2436.49L771.331 2375.88Z" fill="#F2CE16"/>
</g>
<path d="M806.567 1595.76C815.662 1595.58 824.759 1595.73 833.841 1596.22L813.493 1969.06L806.567 1595.76Z" fill="#F2CE16"/>
<path d="M437.979 1771.91C443.175 1769.33 448.462 1766.94 453.832 1764.75L543.543 1985.06L437.979 1771.91Z" fill="#F2CE16"/>
<path d="M1320.04 2573.31C1319.39 2578.81 1318.55 2584.29 1317.5 2589.72L1094.4 2546.99L1320.04 2573.31Z" fill="#F2CE16"/>
<path d="M1666.47 1326.06C1685.06 1341.74 1703.07 1358.1 1720.47 1375.1L1021.94 2089.99L1666.47 1326.06Z" fill="#F2CE16"/>
<path d="M1543.89 2240.39C1544.03 2250.99 1543.79 2261.59 1543.17 2272.18L1108.81 2246.92L1543.89 2240.39Z" fill="#F2CE16"/>
</g>
<defs>
<filter id="filter0_d_1698_8989" x="138.719" y="230.32" width="990.68" height="479.758" filterUnits="userSpaceOnUse" color-interpolation-filters="sRGB">
<feFlood flood-opacity="0" result="BackgroundImageFix"/>
<feColorMatrix in="SourceAlpha" type="matrix" values="0 0 0 0 0 0 0 0 0 0 0 0 0 0 0 0 0 0 127 0" result="hardAlpha"/>
<feOffset dy="4"/>
<feColorMatrix type="matrix" values="0 0 0 0 0 0 0 0 0 0 0 0 0 0 0 0 0 0 0.25 0"/>
<feBlend mode="normal" in2="BackgroundImageFix" result="effect1_dropShadow_1698_8989"/>
<feBlend mode="normal" in="SourceGraphic" in2="effect1_dropShadow_1698_8989" result="shape"/>
</filter>
<radialGradient id="paint0_radial_1698_8989" cx="0" cy="0" r="1" gradientUnits="userSpaceOnUse" gradientTransform="translate(965 2174) rotate(-47.2055) scale(2379.41)">
<stop offset="0.00841973" stop-color="#3C0B53" stop-opacity="0.85"/>
<stop offset="0.697917" stop-color="#69418B" stop-opacity="0"/>
</radialGradient>
<clipPath id="clip0_1698_8989">
<rect width="3000" height="3000" fill="white"/>
</clipPath>
<clipPath id="clip1_1698_8989">
<rect width="835.983" height="836.922" fill="white" transform="matrix(0.718003 0.69604 -0.696017 0.718025 689.037 1810.18)"/>
</clipPath>
</defs>
</svg>
